# xmcd
#
# Track frame offsets:
#	150
#	41181
#	51650
#	96377
#	114394
#	171985
#	192548
#	202582
#
# Disc length: 2919 seconds
#
# Revision: 0
# Processed by: cddbd v1.5.2PL0 Copyright (c) Steve Scherf et al.
# Submitted via: EasyCDDAExtractor 16.0.1.1
#
DISCID=750b6508
DTITLE=Various Artist - Stostra Sumananjali
DYEAR=1900
DGENRE=
TTITLE0=Shree Ganesha Atharvashirsha
TTITLE1=Pranamya Shirsa Dev
TTITLE2=Shree Ramraksha Stostra
TTITLE3=Bhimrupi Maharudra
TTITLE4=Sanskrit Shloka
TTITLE5=Marathi Shloka
TTITLE6=Mantrapushpanjali
TTITLE7=Pasaydan
EXTD=
EXTT0=
EXTT1=
EXTT2=
EXTT3=
EXTT4=
EXTT5=
EXTT6=
EXTT7=
PLAYORDER=
